<?xml version="1.0" encoding="utf-8"?>
<!-- Generator: Adobe Illustrator 24.0.0, SVG Export Plug-In . SVG Version: 6.00 Build 0)  -->
<svg version="1.1" id="Component_6_1" xmlns="http://www.w3.org/2000/svg" xmlns:xlink="http://www.w3.org/1999/xlink" x="0px"
	 y="0px" viewBox="0 0 218 218" style="enable-background:new 0 0 218 218;" xml:space="preserve">
<style type="text/css">
	.st0{fill:#FFFFFF;}
	.st1{fill:none;stroke:#2D677A;stroke-width:4;}
	.st2{fill:none;stroke:#2D677A;stroke-width:3;stroke-miterlimit:10;}
	.st3{enable-background:new    ;}
	.st4{fill:#2D677A;}
	.st5{fill:none;stroke:#2D677A;}
</style>
<path class="st0" d="M33,0h152c18.2,0,33,14.8,33,33v152c0,18.2-14.8,33-33,33H33c-18.2,0-33-14.8-33-33V33C0,14.8,14.8,0,33,0z"/>
<path class="st1" d="M33,2h152c17.1,0,31,13.9,31,31v152c0,17.1-13.9,31-31,31H33c-17.1,0-31-13.9-31-31V33C2,15.9,15.9,2,33,2z"/>
<g id="Layer_1" transform="translate(1.5 -1.23)">
	<circle id="Ellipse_25" class="st2" cx="107.5" cy="89.5" r="55"/>
	<g class="st3">
		<path class="st4" d="M104,96.1c0.9-2,2-3.8,3.3-5.1c1.3-1.4,3-3.1,5.2-5c2.7-2.3,4.6-4.4,5.9-6c1.3-1.7,1.9-3.8,1.9-6.2
			c0-3.3-1.3-5.9-3.8-7.8c-2.5-2-6-3-10.5-3c-7.8,0-13.8,2.6-17.9,7.9l-7.3-5.2c2.8-3.6,6.4-6.4,10.8-8.3c4.4-1.9,9.4-2.9,15.1-2.9
			c7.3,0,13,1.6,17.3,4.8c4.3,3.2,6.4,7.5,6.4,13c0,2.7-0.5,5.2-1.3,7.3c-0.9,2.1-2,3.8-3.3,5.3c-1.3,1.4-3,3.1-5.1,5
			c-2.7,2.5-4.8,4.6-6,6.5c-1.3,1.9-2,4.2-2,6.9h-10C102.6,100.5,103.1,98.1,104,96.1z M103.1,124c-1.2-1.2-1.9-2.8-1.9-4.5
			s0.6-3.3,1.9-4.5c1.2-1.2,2.8-1.9,4.6-1.9c1.9,0,3.4,0.6,4.6,1.9c1.2,1.2,1.8,2.8,1.8,4.5s-0.6,3.3-1.8,4.5
			c-1.2,1.2-2.8,1.8-4.6,1.8C105.9,125.8,104.3,125.2,103.1,124z"/>
	</g>
</g>
<g class="st3">
	<path class="st4" d="M42,170.3L37.1,185h-2.2l-4-11.7l-4,11.7h-2.2l-4.9-14.7h2.2l4,11.9l4.1-11.9h1.9l4.1,12l4.1-12H42z"/>
	<path class="st4" d="M53.9,175c0.8,0.8,1.2,2,1.2,3.6v6.4h-2v-6.2c0-1.1-0.3-1.9-0.8-2.4c-0.5-0.5-1.3-0.8-2.2-0.8
		c-1.1,0-2,0.3-2.6,1c-0.6,0.6-0.9,1.6-0.9,2.7v5.7h-2v-15.6h2v6c0.4-0.5,1-0.9,1.6-1.2c0.7-0.3,1.4-0.4,2.3-0.4
		C51.9,173.8,53,174.2,53.9,175z"/>
	<path class="st4" d="M68.5,173.9l-5.4,12.2c-0.5,1.1-1,1.9-1.7,2.4s-1.4,0.7-2.3,0.7c-0.5,0-1.1-0.1-1.6-0.3
		c-0.5-0.2-0.9-0.4-1.3-0.8l0.9-1.5c0.6,0.5,1.2,0.8,2,0.8c0.5,0,0.9-0.1,1.2-0.4c0.3-0.3,0.6-0.7,0.9-1.3l0.4-0.8l-4.9-11.1h2.1
		l3.9,8.9l3.8-8.9H68.5z"/>
	<path class="st4" d="M78.9,184.2c-1.2-0.7-2.1-1.5-2.8-2.7c-0.7-1.1-1-2.4-1-3.9c0-1.4,0.3-2.7,1-3.9c0.7-1.1,1.6-2,2.8-2.7
		c1.2-0.7,2.5-1,4-1c1.1,0,2.2,0.2,3.2,0.6c1,0.4,1.8,1,2.4,1.7l-1.4,1.3c-1.1-1.2-2.5-1.7-4.1-1.7c-1.1,0-2.1,0.2-3,0.7
		c-0.9,0.5-1.6,1.2-2.1,2c-0.5,0.9-0.7,1.8-0.7,2.9c0,1.1,0.2,2,0.7,2.9c0.5,0.9,1.2,1.5,2.1,2c0.9,0.5,1.9,0.7,3,0.7
		c1.6,0,3-0.6,4.1-1.8l1.4,1.3c-0.7,0.8-1.5,1.3-2.4,1.7s-2,0.6-3.2,0.6C81.4,185.2,80.1,184.8,78.9,184.2z"/>
	<path class="st4" d="M100.5,175c0.8,0.8,1.2,2,1.2,3.6v6.4h-2v-6.2c0-1.1-0.3-1.9-0.8-2.4c-0.5-0.5-1.3-0.8-2.2-0.8
		c-1.1,0-2,0.3-2.6,1c-0.6,0.6-0.9,1.6-0.9,2.7v5.7h-2v-15.6h2v6c0.4-0.5,1-0.9,1.6-1.2c0.7-0.3,1.4-0.4,2.3-0.4
		C98.6,173.8,99.7,174.2,100.5,175z"/>
	<path class="st4" d="M107.4,184.4c-0.9-0.5-1.6-1.2-2.1-2c-0.5-0.9-0.7-1.8-0.7-2.9c0-1.1,0.2-2.1,0.7-2.9c0.5-0.9,1.2-1.5,2.1-2
		c0.9-0.5,1.9-0.7,3-0.7c1.1,0,2.1,0.2,3,0.7c0.9,0.5,1.6,1.2,2.1,2c0.5,0.9,0.7,1.8,0.7,2.9c0,1.1-0.3,2.1-0.7,2.9
		c-0.5,0.9-1.2,1.5-2.1,2c-0.9,0.5-1.9,0.7-3,0.7C109.2,185.1,108.2,184.9,107.4,184.4z M112.3,182.9c0.6-0.3,1-0.8,1.3-1.4
		c0.3-0.6,0.5-1.3,0.5-2c0-0.8-0.2-1.5-0.5-2c-0.3-0.6-0.8-1.1-1.3-1.4c-0.6-0.3-1.2-0.5-1.9-0.5c-0.7,0-1.4,0.2-1.9,0.5
		c-0.6,0.3-1,0.8-1.3,1.4c-0.3,0.6-0.5,1.3-0.5,2c0,0.8,0.2,1.5,0.5,2c0.3,0.6,0.8,1.1,1.3,1.4c0.6,0.3,1.2,0.5,1.9,0.5
		C111.1,183.4,111.7,183.2,112.3,182.9z"/>
	<path class="st4" d="M120.7,184.4c-0.9-0.5-1.6-1.2-2.1-2c-0.5-0.9-0.7-1.8-0.7-2.9c0-1.1,0.2-2.1,0.7-2.9c0.5-0.9,1.2-1.5,2.1-2
		c0.9-0.5,1.9-0.7,3-0.7c1.1,0,2.1,0.2,3,0.7c0.9,0.5,1.6,1.2,2.1,2c0.5,0.9,0.7,1.8,0.7,2.9c0,1.1-0.2,2.1-0.7,2.9
		c-0.5,0.9-1.2,1.5-2.1,2c-0.9,0.5-1.9,0.7-3,0.7C122.6,185.1,121.6,184.9,120.7,184.4z M125.6,182.9c0.6-0.3,1-0.8,1.3-1.4
		c0.3-0.6,0.5-1.3,0.5-2c0-0.8-0.2-1.5-0.5-2s-0.8-1.1-1.3-1.4c-0.6-0.3-1.2-0.5-1.9-0.5s-1.4,0.2-1.9,0.5c-0.6,0.3-1,0.8-1.3,1.4
		s-0.5,1.3-0.5,2c0,0.8,0.2,1.5,0.5,2c0.3,0.6,0.8,1.1,1.3,1.4c0.6,0.3,1.2,0.5,1.9,0.5S125,183.2,125.6,182.9z"/>
	<path class="st4" d="M132.8,184.8c-0.8-0.2-1.5-0.6-2-0.9l0.8-1.6c0.5,0.4,1.1,0.6,1.8,0.8c0.7,0.2,1.4,0.3,2.1,0.3
		c1.8,0,2.6-0.5,2.6-1.5c0-0.3-0.1-0.6-0.4-0.8c-0.2-0.2-0.5-0.3-0.9-0.4c-0.4-0.1-0.9-0.2-1.5-0.3c-0.9-0.1-1.6-0.3-2.2-0.5
		c-0.6-0.2-1.1-0.5-1.5-0.9c-0.4-0.4-0.6-1-0.6-1.8c0-1,0.4-1.8,1.3-2.4c0.8-0.6,2-0.9,3.4-0.9c0.7,0,1.5,0.1,2.2,0.3
		c0.7,0.2,1.4,0.4,1.8,0.7l-0.9,1.6c-0.9-0.6-2-0.9-3.2-0.9c-0.9,0-1.5,0.1-2,0.4s-0.7,0.7-0.7,1.1c0,0.4,0.1,0.7,0.4,0.9
		s0.6,0.4,0.9,0.5c0.4,0.1,0.9,0.2,1.6,0.3c0.9,0.2,1.6,0.3,2.2,0.5s1,0.5,1.4,0.9c0.4,0.4,0.6,1,0.6,1.8c0,1-0.4,1.8-1.3,2.4
		c-0.9,0.6-2,0.9-3.5,0.9C134.5,185.1,133.7,185,132.8,184.8z"/>
	<path class="st4" d="M152.8,180.1h-9c0.1,1,0.6,1.8,1.3,2.4c0.7,0.6,1.6,0.9,2.7,0.9c1.3,0,2.4-0.4,3.2-1.3l1.1,1.3
		c-0.5,0.6-1.1,1-1.9,1.3s-1.6,0.5-2.5,0.5c-1.2,0-2.2-0.2-3.1-0.7c-0.9-0.5-1.6-1.2-2.1-2s-0.7-1.8-0.7-2.9c0-1.1,0.2-2.1,0.7-2.9
		c0.5-0.9,1.1-1.5,2-2c0.8-0.5,1.8-0.7,2.9-0.7c1.1,0,2,0.2,2.8,0.7c0.8,0.5,1.5,1.2,2,2c0.5,0.9,0.7,1.9,0.7,3
		C152.8,179.7,152.8,179.9,152.8,180.1z M144.9,176.3c-0.7,0.6-1,1.4-1.1,2.3h7.1c-0.1-0.9-0.5-1.7-1.1-2.3
		c-0.7-0.6-1.5-0.9-2.4-0.9C146.4,175.5,145.6,175.8,144.9,176.3z"/>
	<path class="st4" d="M172.2,183.2v1.8h-10.7v-14.7h10.4v1.8h-8.3v4.5h7.4v1.8h-7.4v4.7H172.2z"/>
	<path class="st4" d="M188.2,170.3l-6.4,14.7h-2.1l-6.5-14.7h2.3l5.3,12.1l5.3-12.1H188.2z"/>
	<path class="st4" d="M193.2,178.9c0.2-0.4,0.4-0.8,0.7-1.1s0.6-0.6,1.1-1c0.6-0.5,1-0.9,1.2-1.3s0.4-0.8,0.4-1.3
		c0-0.7-0.3-1.2-0.8-1.6c-0.5-0.4-1.3-0.6-2.2-0.6c-1.6,0-2.9,0.6-3.8,1.7l-1.5-1.1c0.6-0.8,1.3-1.3,2.3-1.7s2-0.6,3.2-0.6
		c1.5,0,2.7,0.3,3.6,1s1.3,1.6,1.3,2.7c0,0.6-0.1,1.1-0.3,1.5s-0.4,0.8-0.7,1.1c-0.3,0.3-0.6,0.6-1.1,1c-0.6,0.5-1,1-1.3,1.4
		c-0.3,0.4-0.4,0.9-0.4,1.4H193C193,179.8,193.1,179.3,193.2,178.9z M193.1,184.7c-0.3-0.3-0.4-0.6-0.4-1s0.1-0.7,0.4-1
		c0.3-0.3,0.6-0.4,1-0.4c0.4,0,0.7,0.1,1,0.4c0.3,0.3,0.4,0.6,0.4,1s-0.1,0.7-0.4,1c-0.3,0.3-0.6,0.4-1,0.4
		C193.6,185.1,193.3,185,193.1,184.7z"/>
</g>
<g class="st3">
	<path class="st5" d="M42,170.3L37.1,185h-2.2l-4-11.7l-4,11.7h-2.2l-4.9-14.7h2.2l4,11.9l4.1-11.9h1.9l4.1,12l4.1-12H42z"/>
	<path class="st5" d="M53.9,175c0.8,0.8,1.2,2,1.2,3.6v6.4h-2v-6.2c0-1.1-0.3-1.9-0.8-2.4c-0.5-0.5-1.3-0.8-2.2-0.8
		c-1.1,0-2,0.3-2.6,1c-0.6,0.6-0.9,1.6-0.9,2.7v5.7h-2v-15.6h2v6c0.4-0.5,1-0.9,1.6-1.2c0.7-0.3,1.4-0.4,2.3-0.4
		C51.9,173.8,53,174.2,53.9,175z"/>
	<path class="st5" d="M68.5,173.9l-5.4,12.2c-0.5,1.1-1,1.9-1.7,2.4s-1.4,0.7-2.3,0.7c-0.5,0-1.1-0.1-1.6-0.3
		c-0.5-0.2-0.9-0.4-1.3-0.8l0.9-1.5c0.6,0.5,1.2,0.8,2,0.8c0.5,0,0.9-0.1,1.2-0.4c0.3-0.3,0.6-0.7,0.9-1.3l0.4-0.8l-4.9-11.1h2.1
		l3.9,8.9l3.8-8.9H68.5z"/>
	<path class="st5" d="M78.9,184.2c-1.2-0.7-2.1-1.5-2.8-2.7c-0.7-1.1-1-2.4-1-3.9c0-1.4,0.3-2.7,1-3.9c0.7-1.1,1.6-2,2.8-2.7
		c1.2-0.7,2.5-1,4-1c1.1,0,2.2,0.2,3.2,0.6c1,0.4,1.8,1,2.4,1.7l-1.4,1.3c-1.1-1.2-2.5-1.7-4.1-1.7c-1.1,0-2.1,0.2-3,0.7
		c-0.9,0.5-1.6,1.2-2.1,2c-0.5,0.9-0.7,1.8-0.7,2.9c0,1.1,0.2,2,0.7,2.9c0.5,0.9,1.2,1.5,2.1,2c0.9,0.5,1.9,0.7,3,0.7
		c1.6,0,3-0.6,4.1-1.8l1.4,1.3c-0.7,0.8-1.5,1.3-2.4,1.7s-2,0.6-3.2,0.6C81.4,185.2,80.1,184.8,78.9,184.2z"/>
	<path class="st5" d="M100.5,175c0.8,0.8,1.2,2,1.2,3.6v6.4h-2v-6.2c0-1.1-0.3-1.9-0.8-2.4c-0.5-0.5-1.3-0.8-2.2-0.8
		c-1.1,0-2,0.3-2.6,1c-0.6,0.6-0.9,1.6-0.9,2.7v5.7h-2v-15.6h2v6c0.4-0.5,1-0.9,1.6-1.2c0.7-0.3,1.4-0.4,2.3-0.4
		C98.6,173.8,99.7,174.2,100.5,175z"/>
	<path class="st5" d="M107.4,184.4c-0.9-0.5-1.6-1.2-2.1-2c-0.5-0.9-0.7-1.8-0.7-2.9c0-1.1,0.2-2.1,0.7-2.9c0.5-0.9,1.2-1.5,2.1-2
		c0.9-0.5,1.9-0.7,3-0.7c1.1,0,2.1,0.2,3,0.7c0.9,0.5,1.6,1.2,2.1,2c0.5,0.9,0.7,1.8,0.7,2.9c0,1.1-0.3,2.1-0.7,2.9
		c-0.5,0.9-1.2,1.5-2.1,2c-0.9,0.5-1.9,0.7-3,0.7C109.2,185.1,108.2,184.9,107.4,184.4z M112.3,182.9c0.6-0.3,1-0.8,1.3-1.4
		c0.3-0.6,0.5-1.3,0.5-2c0-0.8-0.2-1.5-0.5-2c-0.3-0.6-0.8-1.1-1.3-1.4c-0.6-0.3-1.2-0.5-1.9-0.5c-0.7,0-1.4,0.2-1.9,0.5
		c-0.6,0.3-1,0.8-1.3,1.4c-0.3,0.6-0.5,1.3-0.5,2c0,0.8,0.2,1.5,0.5,2c0.3,0.6,0.8,1.1,1.3,1.4c0.6,0.3,1.2,0.5,1.9,0.5
		C111.1,183.4,111.7,183.2,112.3,182.9z"/>
	<path class="st5" d="M120.7,184.4c-0.9-0.5-1.6-1.2-2.1-2c-0.5-0.9-0.7-1.8-0.7-2.9c0-1.1,0.2-2.1,0.7-2.9c0.5-0.9,1.2-1.5,2.1-2
		c0.9-0.5,1.9-0.7,3-0.7c1.1,0,2.1,0.2,3,0.7c0.9,0.5,1.6,1.2,2.1,2c0.5,0.9,0.7,1.8,0.7,2.9c0,1.1-0.2,2.1-0.7,2.9
		c-0.5,0.9-1.2,1.5-2.1,2c-0.9,0.5-1.9,0.7-3,0.7C122.6,185.1,121.6,184.9,120.7,184.4z M125.6,182.9c0.6-0.3,1-0.8,1.3-1.4
		c0.3-0.6,0.5-1.3,0.5-2c0-0.8-0.2-1.5-0.5-2s-0.8-1.1-1.3-1.4c-0.6-0.3-1.2-0.5-1.9-0.5s-1.4,0.2-1.9,0.5c-0.6,0.3-1,0.8-1.3,1.4
		s-0.5,1.3-0.5,2c0,0.8,0.2,1.5,0.5,2c0.3,0.6,0.8,1.1,1.3,1.4c0.6,0.3,1.2,0.5,1.9,0.5S125,183.2,125.6,182.9z"/>
	<path class="st5" d="M132.8,184.8c-0.8-0.2-1.5-0.6-2-0.9l0.8-1.6c0.5,0.4,1.1,0.6,1.8,0.8c0.7,0.2,1.4,0.3,2.1,0.3
		c1.8,0,2.6-0.5,2.6-1.5c0-0.3-0.1-0.6-0.4-0.8c-0.2-0.2-0.5-0.3-0.9-0.4c-0.4-0.1-0.9-0.2-1.5-0.3c-0.9-0.1-1.6-0.3-2.2-0.5
		c-0.6-0.2-1.1-0.5-1.5-0.9c-0.4-0.4-0.6-1-0.6-1.8c0-1,0.4-1.8,1.3-2.4c0.8-0.6,2-0.9,3.4-0.9c0.7,0,1.5,0.1,2.2,0.3
		c0.7,0.2,1.4,0.4,1.8,0.7l-0.9,1.6c-0.9-0.6-2-0.9-3.2-0.9c-0.9,0-1.5,0.1-2,0.4s-0.7,0.7-0.7,1.1c0,0.4,0.1,0.7,0.4,0.9
		s0.6,0.4,0.9,0.5c0.4,0.1,0.9,0.2,1.6,0.3c0.9,0.2,1.6,0.3,2.2,0.5s1,0.5,1.4,0.9c0.4,0.4,0.6,1,0.6,1.8c0,1-0.4,1.8-1.3,2.4
		c-0.9,0.6-2,0.9-3.5,0.9C134.5,185.1,133.7,185,132.8,184.8z"/>
	<path class="st5" d="M152.8,180.1h-9c0.1,1,0.6,1.8,1.3,2.4c0.7,0.6,1.6,0.9,2.7,0.9c1.3,0,2.4-0.4,3.2-1.3l1.1,1.3
		c-0.5,0.6-1.1,1-1.9,1.3s-1.6,0.5-2.5,0.5c-1.2,0-2.2-0.2-3.1-0.7c-0.9-0.5-1.6-1.2-2.1-2s-0.7-1.8-0.7-2.9c0-1.1,0.2-2.1,0.7-2.9
		c0.5-0.9,1.1-1.5,2-2c0.8-0.5,1.8-0.7,2.9-0.7c1.1,0,2,0.2,2.8,0.7c0.8,0.5,1.5,1.2,2,2c0.5,0.9,0.7,1.9,0.7,3
		C152.8,179.7,152.8,179.9,152.8,180.1z M144.9,176.3c-0.7,0.6-1,1.4-1.1,2.3h7.1c-0.1-0.9-0.5-1.7-1.1-2.3
		c-0.7-0.6-1.5-0.9-2.4-0.9C146.4,175.5,145.6,175.8,144.9,176.3z"/>
	<path class="st5" d="M172.2,183.2v1.8h-10.7v-14.7h10.4v1.8h-8.3v4.5h7.4v1.8h-7.4v4.7H172.2z"/>
	<path class="st5" d="M188.2,170.3l-6.4,14.7h-2.1l-6.5-14.7h2.3l5.3,12.1l5.3-12.1H188.2z"/>
	<path class="st5" d="M193.2,178.9c0.2-0.4,0.4-0.8,0.7-1.1s0.6-0.6,1.1-1c0.6-0.5,1-0.9,1.2-1.3s0.4-0.8,0.4-1.3
		c0-0.7-0.3-1.2-0.8-1.6c-0.5-0.4-1.3-0.6-2.2-0.6c-1.6,0-2.9,0.6-3.8,1.7l-1.5-1.1c0.6-0.8,1.3-1.3,2.3-1.7s2-0.6,3.2-0.6
		c1.5,0,2.7,0.3,3.6,1s1.3,1.6,1.3,2.7c0,0.6-0.1,1.1-0.3,1.5s-0.4,0.8-0.7,1.1c-0.3,0.3-0.6,0.6-1.1,1c-0.6,0.5-1,1-1.3,1.4
		c-0.3,0.4-0.4,0.9-0.4,1.4H193C193,179.8,193.1,179.3,193.2,178.9z M193.1,184.7c-0.3-0.3-0.4-0.6-0.4-1s0.1-0.7,0.4-1
		c0.3-0.3,0.6-0.4,1-0.4c0.4,0,0.7,0.1,1,0.4c0.3,0.3,0.4,0.6,0.4,1s-0.1,0.7-0.4,1c-0.3,0.3-0.6,0.4-1,0.4
		C193.6,185.1,193.3,185,193.1,184.7z"/>
</g>
</svg>
